<?xml version="1.0" standalone="no"?>
<!DOCTYPE svg PUBLIC "-//W3C//DTD SVG 20010904//EN"
 "http://www.w3.org/TR/2001/REC-SVG-20010904/DTD/svg10.dtd">
<svg version="1.0" xmlns="http://www.w3.org/2000/svg"
 width="300.000000pt" height="300.000000pt" viewBox="0 0 300.000000 300.000000"
 preserveAspectRatio="xMidYMid meet">
<metadata>
Created by potrace 1.14, written by Peter Selinger 2001-2017
</metadata>
<g transform="translate(0.000000,300.000000) scale(0.100000,-0.100000)"
fill="#000000" stroke="none">
<path d="M0 2076 l0 -106 108 1 c59 0 157 0 218 0 l111 -1 1 -557 c0 -307 1
-565 1 -575 1 -14 17 -16 126 -16 l125 1 0 573 0 574 23 0 c12 1 111 1 219 1
l198 0 -4 97 c-2 53 -4 99 -5 102 -1 3 -253 7 -561 9 l-560 2 0 -105z"/>
<path d="M1322 2163 c-5 -10 -9 -303 -10 -679 l0 -662 126 0 127 0 0 677 0
676 -117 3 c-104 2 -118 1 -126 -15z"/>
<path d="M1889 2153 c-1 -34 0 -1315 0 -1325 1 -8 241 -7 242 1 0 3 2 137 4
296 2 160 3 295 4 300 1 6 15 -6 32 -25 17 -19 45 -51 62 -70 18 -19 68 -76
112 -125 44 -50 83 -92 86 -95 3 -3 43 -48 89 -100 47 -52 104 -116 129 -142
l44 -47 153 1 c140 2 152 3 141 18 -13 18 -104 121 -217 247 -19 21 -69 76
-110 123 -41 47 -79 90 -85 96 -72 78 -143 161 -157 183 -17 26 -17 28 10 58
30 33 33 38 142 168 41 50 77 92 80 95 3 3 25 30 50 60 25 30 50 60 55 66 6 6
27 31 46 54 18 23 39 47 44 54 6 6 32 38 59 71 l49 60 -149 3 -149 3 -30 -35
c-16 -19 -37 -42 -45 -52 -8 -11 -40 -49 -70 -85 -30 -36 -71 -85 -90 -109
-43 -53 -138 -168 -196 -235 -23 -27 -51 -61 -63 -75 -25 -31 -23 -55 -27 280
-1 146 -3 275 -3 288 -1 22 -3 22 -121 22 l-120 0 -1 -27z"/>
</g>
</svg>
