<svg width="151" height="48" viewBox="0 0 151 48" fill="none" xmlns="http://www.w3.org/2000/svg">
<rect x="68.166" y="8.84863" width="80.429" height="32.0995" fill="white"/>
<path d="M70.8998 0.232609C68.1427 0.986005 65.8825 3.26222 65.1612 6.0033C64.8085 7.38186 64.7925 40.4672 65.1612 41.8137C65.8825 44.5227 67.9022 46.6386 70.5952 47.4882L71.7333 47.8408H108.041H144.348L145.422 47.4721C148.115 46.5424 150.087 44.4746 150.76 41.9098C150.968 41.0923 151 38.7199 151 23.8764C151 9.96264 150.952 6.66052 150.776 5.98727C150.231 3.9515 148.676 1.94779 146.865 0.986005C144.861 -0.0879846 147.746 -0.00783609 107.88 0.00819361C77.3117 0.00819361 71.6051 0.040253 70.8998 0.232609ZM135.772 9.35351C140.837 10.2832 144.508 13.8418 145.871 19.1797C146.368 21.0712 146.544 23.652 146.352 25.7359C145.742 32.26 142.104 36.9406 136.493 38.3993C134.842 38.8321 131.332 38.784 129.601 38.3192C124.936 37.0689 121.778 33.7828 120.432 28.7494C120.047 27.2907 119.999 26.89 119.999 24.0367C119.983 20.2697 120.239 19.0515 121.586 16.2463C123.782 11.7099 127.901 9.17718 133.127 9.14512C133.929 9.14512 135.115 9.2413 135.772 9.35351ZM79.9085 9.77028C82.5534 9.94661 84.2365 10.3474 85.7433 11.1328C88.5485 12.6075 89.9431 15.2043 89.7187 18.5065C89.5584 20.7346 88.7889 22.3215 87.1218 23.8604C84.9418 25.8481 80.8863 26.906 76.1094 26.7297L74.2179 26.6656V32.4844V38.3031H72.3745H70.5311V24.0688C70.5311 16.2303 70.5792 9.77028 70.6433 9.72219C70.8036 9.5619 77.3437 9.59395 79.9085 9.77028ZM107.399 10.0909C110.221 10.6679 112.497 12.1587 113.555 14.0823C114.757 16.3104 114.757 19.5644 113.523 21.8567C112.593 23.6199 110.413 25.1748 108.073 25.7679L106.951 26.0565L111.102 32.0355C113.395 35.3377 115.254 38.0948 115.254 38.1589C115.254 38.239 114.469 38.3031 113.523 38.3031C111.92 38.3031 111.759 38.2711 111.455 37.9505C111.279 37.7421 109.307 35.1132 107.063 32.0997L102.991 26.6015H100.955H98.9037V32.4523V38.3192L97.1083 38.2711L95.297 38.223L95.2489 24.1169C95.2329 16.3585 95.2489 9.91455 95.297 9.78631C95.4413 9.41763 105.348 9.65807 107.399 10.0909Z" fill="#0265B6"/>
<path d="M130.739 12.7517C127.164 13.6173 124.632 16.5668 123.814 20.7826C123.526 22.3214 123.526 25.5915 123.814 27.1304C124.776 32.0996 127.966 35.1131 132.582 35.3696C138.353 35.7062 142.248 31.779 142.745 25.1587C142.873 23.3794 142.633 20.9429 142.152 19.404C141.078 15.9096 138.754 13.5532 135.532 12.7357C134.362 12.4311 132.005 12.4471 130.739 12.7517Z" fill="#0265B6"/>
<path d="M74.6973 17.7926V22.842L75.7713 22.9702C76.3644 23.0343 77.6628 23.0343 78.6406 22.9862C81.9267 22.8099 84.0266 22.0886 85.2288 20.726C86.0142 19.8284 86.3188 18.8506 86.3028 17.3117C86.2867 15.837 85.6936 14.7149 84.5716 13.9455C83.193 13.0158 82.5518 12.8875 78.4322 12.8074L74.6973 12.7432V17.7926Z" fill="#0265B6"/>
<path d="M98.9023 18.186V23.2354H100.714C106.532 23.2193 108.985 22.4339 110.059 20.2378C110.46 19.4363 110.524 19.1317 110.508 17.9456C110.508 15.8777 109.787 14.6595 108.151 13.874C106.885 13.2809 105.715 13.1366 102.156 13.1366H98.9023V18.186Z" fill="#0265B6"/>
<path d="M0 11.934V14.098H4.56846H9.13693V26.1203V38.1426H11.7818H14.4267V26.1203V14.098H18.9952H23.5797L23.5316 11.9661L23.4835 9.85015L11.7498 9.80206L0 9.77V11.934Z" fill="white"/>
<path d="M27.5224 9.88221C27.4582 9.9303 27.4102 16.3262 27.4102 24.0685V38.1426H30.0551H32.7V23.9563V9.77H30.1673C28.7727 9.77 27.5705 9.81809 27.5224 9.88221Z" fill="white"/>
<path d="M39.4336 23.9563V38.1426H41.9983H44.5631L44.5952 31.6986L44.6432 25.2707L50.3979 31.6986L56.1686 38.1426H59.4226C61.218 38.1426 62.6767 38.1105 62.6767 38.0624C62.6767 38.0143 59.8234 34.7924 56.3449 30.8972C50.0292 23.8601 49.9972 23.8281 50.3017 23.4914C51.2315 22.4655 61.7149 9.9303 61.7149 9.86618C61.7149 9.80206 60.2882 9.77 58.557 9.77L55.3831 9.78603L50.0933 16.1819C47.192 19.7084 44.7555 22.5938 44.6913 22.5938C44.6112 22.5938 44.5631 19.7084 44.5631 16.1819V9.77H41.9983H39.4336V23.9563Z" fill="white"/>
</svg>
