<svg width="303" height="63" viewBox="0 0 303 63" fill="none" xmlns="http://www.w3.org/2000/svg">
<rect y="3" width="60" height="60" fill="#081932"/>
<path d="M30.5 20L43.9234 40.25H17.0766L30.5 20Z" fill="white"/>
<path d="M71.5938 20H69.5625L75.4375 4H77.4375L83.3125 20H81.2812L76.5 6.53125H76.375L71.5938 20ZM72.3438 13.75H80.5313V15.4687H72.3438V13.75ZM97.9277 9H95.9902C95.8757 8.44271 95.6751 7.95312 95.3887 7.53125C95.1074 7.10938 94.7637 6.75521 94.3574 6.46875C93.9564 6.17708 93.5111 5.95833 93.0215 5.8125C92.5319 5.66667 92.0215 5.59375 91.4902 5.59375C90.5215 5.59375 89.6439 5.83854 88.8574 6.32812C88.0762 6.81771 87.4538 7.53906 86.9902 8.49219C86.5319 9.44531 86.3027 10.6146 86.3027 12C86.3027 13.3854 86.5319 14.5547 86.9902 15.5078C87.4538 16.4609 88.0762 17.1823 88.8574 17.6719C89.6439 18.1615 90.5215 18.4062 91.4902 18.4062C92.0215 18.4062 92.5319 18.3333 93.0215 18.1875C93.5111 18.0417 93.9564 17.8255 94.3574 17.5391C94.7637 17.2474 95.1074 16.8906 95.3887 16.4687C95.6751 16.0417 95.8757 15.5521 95.9902 15H97.9277C97.7819 15.8177 97.5163 16.5495 97.1309 17.1953C96.7454 17.8411 96.2663 18.3906 95.6934 18.8437C95.1204 19.2917 94.4772 19.6328 93.7637 19.8672C93.0553 20.1016 92.2975 20.2187 91.4902 20.2187C90.1257 20.2187 88.9121 19.8854 87.8496 19.2188C86.7871 18.5521 85.9512 17.6042 85.3418 16.375C84.7324 15.1458 84.4277 13.6875 84.4277 12C84.4277 10.3125 84.7324 8.85417 85.3418 7.625C85.9512 6.39583 86.7871 5.44792 87.8496 4.78125C88.9121 4.11458 90.1257 3.78125 91.4902 3.78125C92.2975 3.78125 93.0553 3.89844 93.7637 4.13281C94.4772 4.36719 95.1204 4.71094 95.6934 5.16406C96.2663 5.61198 96.7454 6.15885 97.1309 6.80469C97.5163 7.44531 97.7819 8.17708 97.9277 9ZM113.934 9H111.996C111.882 8.44271 111.681 7.95312 111.395 7.53125C111.113 7.10938 110.77 6.75521 110.363 6.46875C109.962 6.17708 109.517 5.95833 109.027 5.8125C108.538 5.66667 108.027 5.59375 107.496 5.59375C106.527 5.59375 105.65 5.83854 104.863 6.32812C104.082 6.81771 103.46 7.53906 102.996 8.49219C102.538 9.44531 102.309 10.6146 102.309 12C102.309 13.3854 102.538 14.5547 102.996 15.5078C103.46 16.4609 104.082 17.1823 104.863 17.6719C105.65 18.1615 106.527 18.4062 107.496 18.4062C108.027 18.4062 108.538 18.3333 109.027 18.1875C109.517 18.0417 109.962 17.8255 110.363 17.5391C110.77 17.2474 111.113 16.8906 111.395 16.4687C111.681 16.0417 111.882 15.5521 111.996 15H113.934C113.788 15.8177 113.522 16.5495 113.137 17.1953C112.751 17.8411 112.272 18.3906 111.699 18.8437C111.126 19.2917 110.483 19.6328 109.77 19.8672C109.061 20.1016 108.303 20.2187 107.496 20.2187C106.132 20.2187 104.918 19.8854 103.855 19.2188C102.793 18.5521 101.957 17.6042 101.348 16.375C100.738 15.1458 100.434 13.6875 100.434 12C100.434 10.3125 100.738 8.85417 101.348 7.625C101.957 6.39583 102.793 5.44792 103.855 4.78125C104.918 4.11458 106.132 3.78125 107.496 3.78125C108.303 3.78125 109.061 3.89844 109.77 4.13281C110.483 4.36719 111.126 4.71094 111.699 5.16406C112.272 5.61198 112.751 6.15885 113.137 6.80469C113.522 7.44531 113.788 8.17708 113.934 9ZM130.564 12C130.564 13.6875 130.26 15.1458 129.65 16.375C129.041 17.6042 128.205 18.5521 127.143 19.2188C126.08 19.8854 124.867 20.2187 123.502 20.2187C122.137 20.2187 120.924 19.8854 119.861 19.2188C118.799 18.5521 117.963 17.6042 117.354 16.375C116.744 15.1458 116.439 13.6875 116.439 12C116.439 10.3125 116.744 8.85417 117.354 7.625C117.963 6.39583 118.799 5.44792 119.861 4.78125C120.924 4.11458 122.137 3.78125 123.502 3.78125C124.867 3.78125 126.08 4.11458 127.143 4.78125C128.205 5.44792 129.041 6.39583 129.65 7.625C130.26 8.85417 130.564 10.3125 130.564 12ZM128.689 12C128.689 10.6146 128.458 9.44531 127.994 8.49219C127.536 7.53906 126.913 6.81771 126.127 6.32812C125.346 5.83854 124.471 5.59375 123.502 5.59375C122.533 5.59375 121.656 5.83854 120.869 6.32812C120.088 6.81771 119.465 7.53906 119.002 8.49219C118.544 9.44531 118.314 10.6146 118.314 12C118.314 13.3854 118.544 14.5547 119.002 15.5078C119.465 16.4609 120.088 17.1823 120.869 17.6719C121.656 18.1615 122.533 18.4062 123.502 18.4062C124.471 18.4062 125.346 18.1615 126.127 17.6719C126.913 17.1823 127.536 16.4609 127.994 15.5078C128.458 14.5547 128.689 13.3854 128.689 12ZM147.416 18.1562L147.197 23.7812H145.197V20H144.072V18.1562H147.416ZM133.822 20V4H135.666V18.2187H143.916V4H145.76V20H133.822ZM150.344 4H152.25V16.5937H152.406L161.156 4H163.031V20H161.094V7.4375H160.938L152.219 20H150.344V4ZM167.564 20H165.533L171.408 4H173.408L179.283 20H177.252L172.471 6.53125H172.346L167.564 20ZM168.314 13.75H176.502V15.4687H168.314V13.75ZM195.369 18.1562L195.15 23.7812H193.15V20H192.025V18.1562H195.369ZM181.775 20V4H183.619V18.2187H191.869V4H193.713V20H181.775ZM198.297 4H200.203V16.5937H200.359L209.109 4H210.984V20H209.047V7.4375H208.891L200.172 20H198.297V4ZM225.736 20H223.799V5.71875H220.393C219.528 5.71875 218.833 5.85156 218.307 6.11719C217.781 6.3776 217.398 6.7474 217.158 7.22656C216.919 7.70573 216.799 8.26562 216.799 8.90625C216.799 9.54687 216.916 10.099 217.15 10.5625C217.39 11.0208 217.77 11.375 218.291 11.625C218.817 11.875 219.507 12 220.361 12H224.674V13.75H220.299C219.059 13.75 218.041 13.5443 217.244 13.1328C216.447 12.7161 215.856 12.1432 215.471 11.4141C215.085 10.6849 214.893 9.84896 214.893 8.90625C214.893 7.96354 215.085 7.1224 215.471 6.38281C215.856 5.64323 216.45 5.0625 217.252 4.64062C218.054 4.21354 219.08 4 220.33 4H225.736V20ZM218.205 12.8125H220.393L216.518 20H214.268L218.205 12.8125ZM82.9063 28V44H80.9688V29.7187H72.9063V44H70.9688V28H82.9063ZM86.8145 44V28H92.2207C93.4759 28 94.502 28.2266 95.2988 28.6797C96.1009 29.1276 96.6947 29.7344 97.0801 30.5C97.4655 31.2656 97.6582 32.1198 97.6582 33.0625C97.6582 34.0052 97.4655 34.862 97.0801 35.6328C96.6999 36.4036 96.1113 37.0182 95.3145 37.4766C94.5176 37.9297 93.4967 38.1562 92.252 38.1562H88.377V36.4375H92.1895C93.0488 36.4375 93.7389 36.2891 94.2598 35.9922C94.7806 35.6953 95.1582 35.2943 95.3926 34.7891C95.6322 34.2786 95.752 33.7031 95.752 33.0625C95.752 32.4219 95.6322 31.849 95.3926 31.3437C95.1582 30.8385 94.778 30.4427 94.252 30.1562C93.7259 29.8646 93.028 29.7187 92.1582 29.7187H88.752V44H86.8145ZM114.279 36C114.279 37.6875 113.975 39.1458 113.365 40.375C112.756 41.6042 111.92 42.5521 110.857 43.2188C109.795 43.8854 108.581 44.2187 107.217 44.2187C105.852 44.2187 104.639 43.8854 103.576 43.2188C102.514 42.5521 101.678 41.6042 101.068 40.375C100.459 39.1458 100.154 37.6875 100.154 36C100.154 34.3125 100.459 32.8542 101.068 31.625C101.678 30.3958 102.514 29.4479 103.576 28.7812C104.639 28.1146 105.852 27.7812 107.217 27.7812C108.581 27.7812 109.795 28.1146 110.857 28.7812C111.92 29.4479 112.756 30.3958 113.365 31.625C113.975 32.8542 114.279 34.3125 114.279 36ZM112.404 36C112.404 34.6146 112.173 33.4453 111.709 32.4922C111.251 31.5391 110.628 30.8177 109.842 30.3281C109.061 29.8385 108.186 29.5937 107.217 29.5937C106.248 29.5937 105.37 29.8385 104.584 30.3281C103.803 30.8177 103.18 31.5391 102.717 32.4922C102.258 33.4453 102.029 34.6146 102.029 36C102.029 37.3854 102.258 38.5547 102.717 39.5078C103.18 40.4609 103.803 41.1823 104.584 41.6719C105.37 42.1615 106.248 42.4062 107.217 42.4062C108.186 42.4062 109.061 42.1615 109.842 41.6719C110.628 41.1823 111.251 40.4609 111.709 39.5078C112.173 38.5547 112.404 37.3854 112.404 36ZM117.537 44V28H127.193V29.7187H119.475V35.125H126.693V36.8437H119.475V42.2812H127.318V44H117.537ZM140.092 44L134.592 36.6562H132.623V44H130.686V28H132.623V34.9375H133.467L139.873 28H142.186L135.717 35.0312L142.404 44H140.092ZM144.033 29.7187V28H156.033V29.7187H151.002V44H149.064V29.7187H144.033ZM159.023 28H160.93V40.5937H161.086L169.836 28H171.711V44H169.773V31.4375H169.617L160.898 44H159.023V28ZM175.588 44V28H180.994C182.249 28 183.275 28.2266 184.072 28.6797C184.874 29.1276 185.468 29.7344 185.854 30.5C186.239 31.2656 186.432 32.1198 186.432 33.0625C186.432 34.0052 186.239 34.862 185.854 35.6328C185.473 36.4036 184.885 37.0182 184.088 37.4766C183.291 37.9297 182.27 38.1562 181.025 38.1562H177.15V36.4375H180.963C181.822 36.4375 182.512 36.2891 183.033 35.9922C183.554 35.6953 183.932 35.2943 184.166 34.7891C184.406 34.2786 184.525 33.7031 184.525 33.0625C184.525 32.4219 184.406 31.849 184.166 31.3437C183.932 30.8385 183.551 30.4427 183.025 30.1562C182.499 29.8646 181.801 29.7187 180.932 29.7187H177.525V44H175.588ZM203.053 36C203.053 37.6875 202.748 39.1458 202.139 40.375C201.529 41.6042 200.693 42.5521 199.631 43.2188C198.568 43.8854 197.355 44.2187 195.99 44.2187C194.626 44.2187 193.412 43.8854 192.35 43.2188C191.287 42.5521 190.451 41.6042 189.842 40.375C189.232 39.1458 188.928 37.6875 188.928 36C188.928 34.3125 189.232 32.8542 189.842 31.625C190.451 30.3958 191.287 29.4479 192.35 28.7812C193.412 28.1146 194.626 27.7812 195.99 27.7812C197.355 27.7812 198.568 28.1146 199.631 28.7812C200.693 29.4479 201.529 30.3958 202.139 31.625C202.748 32.8542 203.053 34.3125 203.053 36ZM201.178 36C201.178 34.6146 200.946 33.4453 200.482 32.4922C200.024 31.5391 199.402 30.8177 198.615 30.3281C197.834 29.8385 196.959 29.5937 195.99 29.5937C195.021 29.5937 194.144 29.8385 193.357 30.3281C192.576 30.8177 191.954 31.5391 191.49 32.4922C191.032 33.4453 190.803 34.6146 190.803 36C190.803 37.3854 191.032 38.5547 191.49 39.5078C191.954 40.4609 192.576 41.1823 193.357 41.6719C194.144 42.1615 195.021 42.4062 195.99 42.4062C196.959 42.4062 197.834 42.1615 198.615 41.6719C199.402 41.1823 200.024 40.4609 200.482 39.5078C200.946 38.5547 201.178 37.3854 201.178 36ZM206.311 44V28H211.904C213.019 28 213.938 28.1927 214.662 28.5781C215.386 28.9583 215.925 29.4714 216.279 30.1172C216.633 30.7578 216.811 31.4687 216.811 32.25C216.811 32.9375 216.688 33.5052 216.443 33.9531C216.204 34.401 215.886 34.7552 215.49 35.0156C215.1 35.276 214.675 35.4687 214.217 35.5937V35.75C214.706 35.7812 215.199 35.9531 215.693 36.2656C216.188 36.5781 216.602 37.026 216.936 37.6094C217.269 38.1927 217.436 38.9062 217.436 39.75C217.436 40.5521 217.253 41.2734 216.889 41.9141C216.524 42.5547 215.949 43.0625 215.162 43.4375C214.376 43.8125 213.352 44 212.092 44H206.311ZM208.248 42.2812H212.092C213.357 42.2812 214.256 42.0365 214.787 41.5469C215.324 41.0521 215.592 40.4531 215.592 39.75C215.592 39.2083 215.454 38.7083 215.178 38.25C214.902 37.7865 214.508 37.4167 213.998 37.1406C213.488 36.8594 212.883 36.7188 212.186 36.7188H208.248V42.2812ZM208.248 35.0312H211.842C212.425 35.0312 212.951 34.9167 213.42 34.6875C213.894 34.4583 214.269 34.1354 214.545 33.7187C214.826 33.3021 214.967 32.8125 214.967 32.25C214.967 31.5469 214.722 30.9505 214.232 30.4609C213.743 29.9661 212.967 29.7187 211.904 29.7187H208.248V35.0312ZM239.244 42.2812L239.025 47.7812H237.119V44H235.588V42.2812H239.244ZM220.619 28H222.557V42.2187H228.182V28H230.119V42.2187H235.744V28H237.682V44H220.619V28ZM242.189 28H244.096V40.5937H244.252L253.002 28H254.877V44H252.939V31.4375H252.783L244.064 44H242.189V28ZM268.16 44L262.66 36.6562H260.691V44H258.754V28H260.691V34.9375H261.535L267.941 28H270.254L263.785 35.0312L270.473 44H268.16ZM285.725 36C285.725 37.6875 285.42 39.1458 284.811 40.375C284.201 41.6042 283.365 42.5521 282.303 43.2188C281.24 43.8854 280.027 44.2187 278.662 44.2187C277.298 44.2187 276.084 43.8854 275.021 43.2188C273.959 42.5521 273.123 41.6042 272.514 40.375C271.904 39.1458 271.6 37.6875 271.6 36C271.6 34.3125 271.904 32.8542 272.514 31.625C273.123 30.3958 273.959 29.4479 275.021 28.7812C276.084 28.1146 277.298 27.7812 278.662 27.7812C280.027 27.7812 281.24 28.1146 282.303 28.7812C283.365 29.4479 284.201 30.3958 284.811 31.625C285.42 32.8542 285.725 34.3125 285.725 36ZM283.85 36C283.85 34.6146 283.618 33.4453 283.154 32.4922C282.696 31.5391 282.074 30.8177 281.287 30.3281C280.506 29.8385 279.631 29.5937 278.662 29.5937C277.693 29.5937 276.816 29.8385 276.029 30.3281C275.248 30.8177 274.626 31.5391 274.162 32.4922C273.704 33.4453 273.475 34.6146 273.475 36C273.475 37.3854 273.704 38.5547 274.162 39.5078C274.626 40.4609 275.248 41.1823 276.029 41.6719C276.816 42.1615 277.693 42.4062 278.662 42.4062C279.631 42.4062 280.506 42.1615 281.287 41.6719C282.074 41.1823 282.696 40.4609 283.154 39.5078C283.618 38.5547 283.85 37.3854 283.85 36ZM288.982 44V28H294.576C295.691 28 296.61 28.1927 297.334 28.5781C298.058 28.9583 298.597 29.4714 298.951 30.1172C299.305 30.7578 299.482 31.4687 299.482 32.25C299.482 32.9375 299.36 33.5052 299.115 33.9531C298.876 34.401 298.558 34.7552 298.162 35.0156C297.771 35.276 297.347 35.4687 296.889 35.5937V35.75C297.378 35.7812 297.87 35.9531 298.365 36.2656C298.86 36.5781 299.274 37.026 299.607 37.6094C299.941 38.1927 300.107 38.9062 300.107 39.75C300.107 40.5521 299.925 41.2734 299.561 41.9141C299.196 42.5547 298.62 43.0625 297.834 43.4375C297.048 43.8125 296.024 44 294.764 44H288.982ZM290.92 42.2812H294.764C296.029 42.2812 296.928 42.0365 297.459 41.5469C297.995 41.0521 298.264 40.4531 298.264 39.75C298.264 39.2083 298.126 38.7083 297.85 38.25C297.574 37.7865 297.18 37.4167 296.67 37.1406C296.16 36.8594 295.555 36.7188 294.857 36.7188H290.92V42.2812ZM290.92 35.0312H294.514C295.097 35.0312 295.623 34.9167 296.092 34.6875C296.566 34.4583 296.941 34.1354 297.217 33.7187C297.498 33.3021 297.639 32.8125 297.639 32.25C297.639 31.5469 297.394 30.9505 296.904 30.4609C296.415 29.9661 295.639 29.7187 294.576 29.7187H290.92V35.0312ZM70.4091 50.3636H72.0909L76.0455 60.0227H76.1818L80.1364 50.3636H81.8182V62H80.5V53.1591H80.3864L76.75 62H75.4773L71.8409 53.1591H71.7273V62H70.4091V50.3636ZM94.4616 56.1818C94.4616 57.4091 94.2401 58.4697 93.7969 59.3636C93.3537 60.2576 92.7457 60.947 91.973 61.4318C91.2003 61.9167 90.3177 62.1591 89.3253 62.1591C88.3329 62.1591 87.4503 61.9167 86.6776 61.4318C85.9048 60.947 85.2969 60.2576 84.8537 59.3636C84.4105 58.4697 84.1889 57.4091 84.1889 56.1818C84.1889 54.9545 84.4105 53.8939 84.8537 53C85.2969 52.1061 85.9048 51.4167 86.6776 50.9318C87.4503 50.447 88.3329 50.2045 89.3253 50.2045C90.3177 50.2045 91.2003 50.447 91.973 50.9318C92.7457 51.4167 93.3537 52.1061 93.7969 53C94.2401 53.8939 94.4616 54.9545 94.4616 56.1818ZM93.098 56.1818C93.098 55.1742 92.9295 54.3239 92.5923 53.6307C92.259 52.9375 91.8063 52.4129 91.2344 52.0568C90.6662 51.7008 90.0298 51.5227 89.3253 51.5227C88.6207 51.5227 87.9825 51.7008 87.4105 52.0568C86.8423 52.4129 86.3897 52.9375 86.0526 53.6307C85.7192 54.3239 85.5526 55.1742 85.5526 56.1818C85.5526 57.1894 85.7192 58.0398 86.0526 58.733C86.3897 59.4261 86.8423 59.9508 87.4105 60.3068C87.9825 60.6629 88.6207 60.8409 89.3253 60.8409C90.0298 60.8409 90.6662 60.6629 91.2344 60.3068C91.8063 59.9508 92.259 59.4261 92.5923 58.733C92.9295 58.0398 93.098 57.1894 93.098 56.1818ZM106.195 54H104.786C104.702 53.5947 104.556 53.2386 104.348 52.9318C104.143 52.625 103.893 52.3674 103.598 52.1591C103.306 51.947 102.982 51.7879 102.626 51.6818C102.27 51.5758 101.899 51.5227 101.513 51.5227C100.808 51.5227 100.17 51.7008 99.598 52.0568C99.0298 52.4129 98.5772 52.9375 98.2401 53.6307C97.9067 54.3239 97.7401 55.1742 97.7401 56.1818C97.7401 57.1894 97.9067 58.0398 98.2401 58.733C98.5772 59.4261 99.0298 59.9508 99.598 60.3068C100.17 60.6629 100.808 60.8409 101.513 60.8409C101.899 60.8409 102.27 60.7879 102.626 60.6818C102.982 60.5758 103.306 60.4186 103.598 60.2102C103.893 59.9981 104.143 59.7386 104.348 59.4318C104.556 59.1212 104.702 58.7652 104.786 58.3636H106.195C106.089 58.9583 105.895 59.4905 105.615 59.9602C105.335 60.4299 104.986 60.8295 104.57 61.1591C104.153 61.4848 103.685 61.733 103.166 61.9034C102.651 62.0739 102.1 62.1591 101.513 62.1591C100.52 62.1591 99.6378 61.9167 98.8651 61.4318C98.0923 60.947 97.4844 60.2576 97.0412 59.3636C96.598 58.4697 96.3764 57.4091 96.3764 56.1818C96.3764 54.9545 96.598 53.8939 97.0412 53C97.4844 52.1061 98.0923 51.4167 98.8651 50.9318C99.6378 50.447 100.52 50.2045 101.513 50.2045C102.1 50.2045 102.651 50.2898 103.166 50.4602C103.685 50.6307 104.153 50.8807 104.57 51.2102C104.986 51.536 105.335 51.9337 105.615 52.4034C105.895 52.8693 106.089 53.4015 106.195 54ZM115.312 62L111.312 56.6591H109.881V62H108.472V50.3636H109.881V55.4091H110.494L115.153 50.3636H116.835L112.131 55.4773L116.994 62H115.312ZM128.087 56.1818C128.087 57.4091 127.865 58.4697 127.422 59.3636C126.979 60.2576 126.371 60.947 125.598 61.4318C124.825 61.9167 123.943 62.1591 122.95 62.1591C121.958 62.1591 121.075 61.9167 120.303 61.4318C119.53 60.947 118.922 60.2576 118.479 59.3636C118.036 58.4697 117.814 57.4091 117.814 56.1818C117.814 54.9545 118.036 53.8939 118.479 53C118.922 52.1061 119.53 51.4167 120.303 50.9318C121.075 50.447 121.958 50.2045 122.95 50.2045C123.943 50.2045 124.825 50.447 125.598 50.9318C126.371 51.4167 126.979 52.1061 127.422 53C127.865 53.8939 128.087 54.9545 128.087 56.1818ZM126.723 56.1818C126.723 55.1742 126.554 54.3239 126.217 53.6307C125.884 52.9375 125.431 52.4129 124.859 52.0568C124.291 51.7008 123.655 51.5227 122.95 51.5227C122.246 51.5227 121.607 51.7008 121.036 52.0568C120.467 52.4129 120.015 52.9375 119.678 53.6307C119.344 54.3239 119.178 55.1742 119.178 56.1818C119.178 57.1894 119.344 58.0398 119.678 58.733C120.015 59.4261 120.467 59.9508 121.036 60.3068C121.607 60.6629 122.246 60.8409 122.95 60.8409C123.655 60.8409 124.291 60.6629 124.859 60.3068C125.431 59.9508 125.884 59.4261 126.217 58.733C126.554 58.0398 126.723 57.1894 126.723 56.1818ZM130.456 62V50.3636H134.524C135.335 50.3636 136.003 50.5038 136.53 50.7841C137.056 51.0606 137.448 51.4337 137.706 51.9034C137.964 52.3693 138.092 52.8864 138.092 53.4545C138.092 53.9545 138.003 54.3674 137.825 54.6932C137.651 55.0189 137.42 55.2765 137.132 55.4659C136.848 55.6553 136.539 55.7955 136.206 55.8864V56C136.562 56.0227 136.92 56.1477 137.28 56.375C137.64 56.6023 137.941 56.928 138.183 57.3523C138.426 57.7765 138.547 58.2955 138.547 58.9091C138.547 59.4924 138.414 60.017 138.149 60.483C137.884 60.9489 137.465 61.3182 136.893 61.5909C136.321 61.8636 135.577 62 134.661 62H130.456ZM131.865 60.75H134.661C135.581 60.75 136.234 60.572 136.621 60.2159C137.011 59.8561 137.206 59.4205 137.206 58.9091C137.206 58.5152 137.106 58.1515 136.905 57.8182C136.704 57.4811 136.418 57.2121 136.047 57.0114C135.676 56.8068 135.236 56.7045 134.729 56.7045H131.865V60.75ZM131.865 55.4773H134.479C134.903 55.4773 135.286 55.3939 135.626 55.2273C135.971 55.0606 136.244 54.8258 136.445 54.5227C136.649 54.2197 136.751 53.8636 136.751 53.4545C136.751 52.9432 136.573 52.5095 136.217 52.1534C135.861 51.7936 135.297 51.6136 134.524 51.6136H131.865V55.4773ZM150.226 54H148.817C148.733 53.5947 148.588 53.2386 148.379 52.9318C148.175 52.625 147.925 52.3674 147.629 52.1591C147.338 51.947 147.014 51.7879 146.658 51.6818C146.302 51.5758 145.93 51.5227 145.544 51.5227C144.839 51.5227 144.201 51.7008 143.629 52.0568C143.061 52.4129 142.608 52.9375 142.271 53.6307C141.938 54.3239 141.771 55.1742 141.771 56.1818C141.771 57.1894 141.938 58.0398 142.271 58.733C142.608 59.4261 143.061 59.9508 143.629 60.3068C144.201 60.6629 144.839 60.8409 145.544 60.8409C145.93 60.8409 146.302 60.7879 146.658 60.6818C147.014 60.5758 147.338 60.4186 147.629 60.2102C147.925 59.9981 148.175 59.7386 148.379 59.4318C148.588 59.1212 148.733 58.7652 148.817 58.3636H150.226C150.12 58.9583 149.927 59.4905 149.646 59.9602C149.366 60.4299 149.018 60.8295 148.601 61.1591C148.184 61.4848 147.716 61.733 147.197 61.9034C146.682 62.0739 146.131 62.1591 145.544 62.1591C144.552 62.1591 143.669 61.9167 142.896 61.4318C142.124 60.947 141.516 60.2576 141.072 59.3636C140.629 58.4697 140.408 57.4091 140.408 56.1818C140.408 54.9545 140.629 53.8939 141.072 53C141.516 52.1061 142.124 51.4167 142.896 50.9318C143.669 50.447 144.552 50.2045 145.544 50.2045C146.131 50.2045 146.682 50.2898 147.197 50.4602C147.716 50.6307 148.184 50.8807 148.601 51.2102C149.018 51.536 149.366 51.9337 149.646 52.4034C149.927 52.8693 150.12 53.4015 150.226 54ZM159.344 62L155.344 56.6591H153.912V62H152.503V50.3636H153.912V55.4091H154.526L159.185 50.3636H160.866L156.162 55.4773L161.026 62H159.344ZM172.118 56.1818C172.118 57.4091 171.896 58.4697 171.453 59.3636C171.01 60.2576 170.402 60.947 169.629 61.4318C168.857 61.9167 167.974 62.1591 166.982 62.1591C165.989 62.1591 165.107 61.9167 164.334 61.4318C163.561 60.947 162.953 60.2576 162.51 59.3636C162.067 58.4697 161.845 57.4091 161.845 56.1818C161.845 54.9545 162.067 53.8939 162.51 53C162.953 52.1061 163.561 51.4167 164.334 50.9318C165.107 50.447 165.989 50.2045 166.982 50.2045C167.974 50.2045 168.857 50.447 169.629 50.9318C170.402 51.4167 171.01 52.1061 171.453 53C171.896 53.8939 172.118 54.9545 172.118 56.1818ZM170.754 56.1818C170.754 55.1742 170.586 54.3239 170.249 53.6307C169.915 52.9375 169.463 52.4129 168.891 52.0568C168.322 51.7008 167.686 51.5227 166.982 51.5227C166.277 51.5227 165.639 51.7008 165.067 52.0568C164.499 52.4129 164.046 52.9375 163.709 53.6307C163.375 54.3239 163.209 55.1742 163.209 56.1818C163.209 57.1894 163.375 58.0398 163.709 58.733C164.046 59.4261 164.499 59.9508 165.067 60.3068C165.639 60.6629 166.277 60.8409 166.982 60.8409C167.686 60.8409 168.322 60.6629 168.891 60.3068C169.463 59.9508 169.915 59.4261 170.249 58.733C170.586 58.0398 170.754 57.1894 170.754 56.1818ZM174.487 50.3636H175.874V59.5227H175.987L182.351 50.3636H183.714V62H182.305V52.8636H182.192L175.851 62H174.487V50.3636ZM180.214 47.4545H181.464C181.464 48.0682 181.252 48.5701 180.828 48.9602C180.404 49.3504 179.828 49.5455 179.101 49.5455C178.385 49.5455 177.815 49.3504 177.391 48.9602C176.97 48.5701 176.76 48.0682 176.76 47.4545H178.01C178.01 47.75 178.091 48.0095 178.254 48.233C178.421 48.4564 178.703 48.5682 179.101 48.5682C179.499 48.5682 179.783 48.4564 179.953 48.233C180.127 48.0095 180.214 47.75 180.214 47.4545ZM199.727 56.1818C199.727 57.4091 199.506 58.4697 199.062 59.3636C198.619 60.2576 198.011 60.947 197.239 61.4318C196.466 61.9167 195.583 62.1591 194.591 62.1591C193.598 62.1591 192.716 61.9167 191.943 61.4318C191.17 60.947 190.563 60.2576 190.119 59.3636C189.676 58.4697 189.455 57.4091 189.455 56.1818C189.455 54.9545 189.676 53.8939 190.119 53C190.563 52.1061 191.17 51.4167 191.943 50.9318C192.716 50.447 193.598 50.2045 194.591 50.2045C195.583 50.2045 196.466 50.447 197.239 50.9318C198.011 51.4167 198.619 52.1061 199.062 53C199.506 53.8939 199.727 54.9545 199.727 56.1818ZM198.364 56.1818C198.364 55.1742 198.195 54.3239 197.858 53.6307C197.525 52.9375 197.072 52.4129 196.5 52.0568C195.932 51.7008 195.295 51.5227 194.591 51.5227C193.886 51.5227 193.248 51.7008 192.676 52.0568C192.108 52.4129 191.655 52.9375 191.318 53.6307C190.985 54.3239 190.818 55.1742 190.818 56.1818C190.818 57.1894 190.985 58.0398 191.318 58.733C191.655 59.4261 192.108 59.9508 192.676 60.3068C193.248 60.6629 193.886 60.8409 194.591 60.8409C195.295 60.8409 195.932 60.6629 196.5 60.3068C197.072 59.9508 197.525 59.4261 197.858 58.733C198.195 58.0398 198.364 57.1894 198.364 56.1818ZM202.097 62V50.3636H209.119V51.6136H203.506V55.25H206.46C207.294 55.25 207.996 55.3864 208.568 55.6591C209.144 55.9318 209.58 56.3163 209.875 56.8125C210.174 57.3087 210.324 57.8939 210.324 58.5682C210.324 59.2424 210.174 59.8371 209.875 60.3523C209.58 60.8674 209.144 61.2708 208.568 61.5625C207.996 61.8542 207.294 62 206.46 62H202.097ZM203.506 60.7727H206.46C206.991 60.7727 207.439 60.6667 207.807 60.4545C208.178 60.2386 208.458 59.9621 208.648 59.625C208.841 59.2841 208.938 58.9242 208.938 58.5455C208.938 57.9886 208.723 57.5095 208.295 57.108C207.867 56.7027 207.256 56.5 206.46 56.5H203.506V60.7727ZM211.643 62V60.7045H211.984C212.469 60.7045 212.846 60.5492 213.115 60.2386C213.384 59.928 213.577 59.4261 213.695 58.733C213.816 58.0398 213.897 57.1212 213.939 55.9773L214.143 50.3636H221.234V62H219.825V51.6136H215.484L215.303 56.25C215.257 57.4697 215.145 58.5076 214.967 59.3636C214.789 60.2197 214.477 60.8731 214.03 61.3239C213.583 61.7746 212.931 62 212.075 62H211.643ZM224.527 62H223.05L227.322 50.3636H228.777L233.05 62H231.572L228.095 52.2045H228.004L224.527 62ZM225.072 57.4545H231.027V58.7045H225.072V57.4545ZM243.679 54H242.27C242.187 53.5947 242.041 53.2386 241.832 52.9318C241.628 52.625 241.378 52.3674 241.082 52.1591C240.791 51.947 240.467 51.7879 240.111 51.6818C239.755 51.5758 239.384 51.5227 238.997 51.5227C238.293 51.5227 237.654 51.7008 237.082 52.0568C236.514 52.4129 236.062 52.9375 235.724 53.6307C235.391 54.3239 235.224 55.1742 235.224 56.1818C235.224 57.1894 235.391 58.0398 235.724 58.733C236.062 59.4261 236.514 59.9508 237.082 60.3068C237.654 60.6629 238.293 60.8409 238.997 60.8409C239.384 60.8409 239.755 60.7879 240.111 60.6818C240.467 60.5758 240.791 60.4186 241.082 60.2102C241.378 59.9981 241.628 59.7386 241.832 59.4318C242.041 59.1212 242.187 58.7652 242.27 58.3636H243.679C243.573 58.9583 243.38 59.4905 243.099 59.9602C242.819 60.4299 242.471 60.8295 242.054 61.1591C241.637 61.4848 241.17 61.733 240.651 61.9034C240.135 62.0739 239.584 62.1591 238.997 62.1591C238.005 62.1591 237.122 61.9167 236.349 61.4318C235.577 60.947 234.969 60.2576 234.526 59.3636C234.082 58.4697 233.861 57.4091 233.861 56.1818C233.861 54.9545 234.082 53.8939 234.526 53C234.969 52.1061 235.577 51.4167 236.349 50.9318C237.122 50.447 238.005 50.2045 238.997 50.2045C239.584 50.2045 240.135 50.2898 240.651 50.4602C241.17 50.6307 241.637 50.8807 242.054 51.2102C242.471 51.536 242.819 51.9337 243.099 52.4034C243.38 52.8693 243.573 53.4015 243.679 54ZM245.32 51.6136V50.3636H254.047V51.6136H250.388V62H248.979V51.6136H245.32ZM256.222 50.3636H257.608V59.5227H257.722L264.085 50.3636H265.449V62H264.04V52.8636H263.926L257.585 62H256.222V50.3636Z" fill="black"/>
</svg>
