<svg width="120" height="120" viewBox="0 0 120 120" fill="none" xmlns="http://www.w3.org/2000/svg">
<rect width="120" height="120" rx="20" fill="white"/>
<path d="M10 39.9417V43.6471H17.3119H24.6239V64.2329V84.8188H28.8571H33.0903V64.2329V43.6471H40.4023H47.7399L47.6629 39.9967L47.5859 36.3736L28.8059 36.2912L10 36.2363V39.9417Z" fill="black"/>
<path d="M54.0497 36.4285C53.9469 36.5108 53.8701 47.4625 53.8701 60.7196V84.8188H58.1033H62.3366V60.5275V36.2363H58.2829C56.0508 36.2363 54.1267 36.3187 54.0497 36.4285Z" fill="black"/>
<path d="M72.7988 60.2912V84.5824H76.9037H81.0087L81.0601 73.5484L81.1369 62.5418L90.3475 73.5484L99.5836 84.5824H104.792C107.665 84.5824 110 84.5275 110 84.4451C110 84.3628 105.433 78.8459 99.8658 72.1761C89.7573 60.1265 89.7061 60.0717 90.1935 59.4951C91.6817 57.7385 108.461 36.2745 108.461 36.1647C108.461 36.0549 106.177 36 103.406 36L98.3264 36.0274L89.8599 46.9791C85.2163 53.0175 81.3167 57.9582 81.2139 57.9582C81.0857 57.9582 81.0087 53.0175 81.0087 46.9791V36H76.9037H72.7988V60.2912Z" fill="black"/>
</svg>
